<mxfile host="app.diagrams.net" agent="Mozilla/5.0 (Windows NT 10.0; Win64; x64) AppleWebKit/537.36 (KHTML, like Gecko) Chrome/139.0.0.0 Safari/537.36" version="28.1.0">
  <diagram name="Page-1" id="xhMAVkmvKQHhejLHg4zm">
    <mxGraphModel dx="2003" dy="1291" grid="0" gridSize="10" guides="1" tooltips="1" connect="1" arrows="1" fold="1" page="0" pageScale="1" pageWidth="827" pageHeight="1169" math="0" shadow="0">
      <root>
        <mxCell id="0" />
        <mxCell id="1" parent="0" />
        <mxCell id="wjfshBFA1GzZAg17_Ccb-20" style="edgeStyle=none;curved=1;rounded=0;orthogonalLoop=1;jettySize=auto;html=1;exitX=0.5;exitY=1;exitDx=0;exitDy=0;entryX=0.5;entryY=0;entryDx=0;entryDy=0;fontSize=12;startSize=8;endSize=8;" edge="1" parent="1" target="wjfshBFA1GzZAg17_Ccb-2">
          <mxGeometry relative="1" as="geometry">
            <mxPoint x="202" y="82" as="sourcePoint" />
          </mxGeometry>
        </mxCell>
        <mxCell id="wjfshBFA1GzZAg17_Ccb-19" style="edgeStyle=none;curved=1;rounded=0;orthogonalLoop=1;jettySize=auto;html=1;exitX=0.5;exitY=1;exitDx=0;exitDy=0;fontSize=12;startSize=8;endSize=8;" edge="1" parent="1" source="wjfshBFA1GzZAg17_Ccb-2" target="wjfshBFA1GzZAg17_Ccb-3">
          <mxGeometry relative="1" as="geometry" />
        </mxCell>
        <mxCell id="wjfshBFA1GzZAg17_Ccb-2" value="Load Feeding Schedule" style="rounded=0;whiteSpace=wrap;html=1;" vertex="1" parent="1">
          <mxGeometry x="142" y="109" width="120" height="48" as="geometry" />
        </mxCell>
        <mxCell id="wjfshBFA1GzZAg17_Ccb-5" style="edgeStyle=none;curved=1;rounded=0;orthogonalLoop=1;jettySize=auto;html=1;exitX=1;exitY=0.5;exitDx=0;exitDy=0;entryX=0.5;entryY=0;entryDx=0;entryDy=0;fontSize=12;startSize=8;endSize=8;" edge="1" parent="1" source="wjfshBFA1GzZAg17_Ccb-3" target="wjfshBFA1GzZAg17_Ccb-4">
          <mxGeometry relative="1" as="geometry" />
        </mxCell>
        <mxCell id="wjfshBFA1GzZAg17_Ccb-3" value="Is Current Time = Feeding Time?" style="rhombus;whiteSpace=wrap;html=1;" vertex="1" parent="1">
          <mxGeometry x="92" y="184" width="214" height="80" as="geometry" />
        </mxCell>
        <mxCell id="wjfshBFA1GzZAg17_Ccb-15" style="edgeStyle=none;curved=1;rounded=0;orthogonalLoop=1;jettySize=auto;html=1;exitX=0;exitY=1;exitDx=0;exitDy=0;entryX=0.5;entryY=0;entryDx=0;entryDy=0;fontSize=12;startSize=8;endSize=8;" edge="1" parent="1" source="wjfshBFA1GzZAg17_Ccb-4" target="wjfshBFA1GzZAg17_Ccb-11">
          <mxGeometry relative="1" as="geometry" />
        </mxCell>
        <mxCell id="wjfshBFA1GzZAg17_Ccb-17" style="edgeStyle=none;curved=1;rounded=0;orthogonalLoop=1;jettySize=auto;html=1;exitX=1;exitY=1;exitDx=0;exitDy=0;entryX=0.5;entryY=0;entryDx=0;entryDy=0;fontSize=12;startSize=8;endSize=8;" edge="1" parent="1" source="wjfshBFA1GzZAg17_Ccb-4" target="wjfshBFA1GzZAg17_Ccb-10">
          <mxGeometry relative="1" as="geometry" />
        </mxCell>
        <mxCell id="wjfshBFA1GzZAg17_Ccb-4" value="Is Food Available?" style="rhombus;whiteSpace=wrap;html=1;" vertex="1" parent="1">
          <mxGeometry x="285" y="257.5" width="214" height="80" as="geometry" />
        </mxCell>
        <mxCell id="wjfshBFA1GzZAg17_Ccb-6" value="If Yes" style="text;html=1;align=center;verticalAlign=middle;resizable=0;points=[];autosize=1;strokeColor=none;fillColor=none;fontSize=16;" vertex="1" parent="1">
          <mxGeometry x="332" y="208.5" width="57" height="31" as="geometry" />
        </mxCell>
        <mxCell id="wjfshBFA1GzZAg17_Ccb-8" value="" style="curved=1;endArrow=classic;html=1;rounded=0;fontSize=12;startSize=8;endSize=8;exitX=0;exitY=0.5;exitDx=0;exitDy=0;" edge="1" parent="1" source="wjfshBFA1GzZAg17_Ccb-3" target="wjfshBFA1GzZAg17_Ccb-3">
          <mxGeometry width="50" height="50" relative="1" as="geometry">
            <mxPoint x="5" y="231" as="sourcePoint" />
            <mxPoint x="55" y="181" as="targetPoint" />
            <Array as="points">
              <mxPoint x="55" y="231" />
              <mxPoint x="12" y="206" />
              <mxPoint x="5" y="181" />
            </Array>
          </mxGeometry>
        </mxCell>
        <mxCell id="wjfshBFA1GzZAg17_Ccb-9" value="No" style="text;html=1;align=center;verticalAlign=middle;resizable=0;points=[];autosize=1;strokeColor=none;fillColor=none;fontSize=16;" vertex="1" parent="1">
          <mxGeometry x="-18.5" y="192.5" width="38" height="31" as="geometry" />
        </mxCell>
        <mxCell id="wjfshBFA1GzZAg17_Ccb-32" style="edgeStyle=none;curved=1;rounded=0;orthogonalLoop=1;jettySize=auto;html=1;exitX=0;exitY=0.5;exitDx=0;exitDy=0;entryX=0.5;entryY=0;entryDx=0;entryDy=0;fontSize=12;startSize=8;endSize=8;" edge="1" parent="1" source="wjfshBFA1GzZAg17_Ccb-10" target="wjfshBFA1GzZAg17_Ccb-21">
          <mxGeometry relative="1" as="geometry" />
        </mxCell>
        <mxCell id="wjfshBFA1GzZAg17_Ccb-10" value="Dispense Food (Servo)" style="rounded=0;whiteSpace=wrap;html=1;" vertex="1" parent="1">
          <mxGeometry x="455" y="385" width="120" height="48" as="geometry" />
        </mxCell>
        <mxCell id="wjfshBFA1GzZAg17_Ccb-11" value="Send Alert:&lt;div&gt;Food Empty&lt;/div&gt;" style="rounded=0;whiteSpace=wrap;html=1;" vertex="1" parent="1">
          <mxGeometry x="228" y="391" width="120" height="48" as="geometry" />
        </mxCell>
        <mxCell id="wjfshBFA1GzZAg17_Ccb-13" value="" style="endArrow=none;html=1;rounded=0;fontSize=12;startSize=8;endSize=8;curved=1;exitX=0;exitY=0.5;exitDx=0;exitDy=0;" edge="1" parent="1" source="wjfshBFA1GzZAg17_Ccb-11">
          <mxGeometry width="50" height="50" relative="1" as="geometry">
            <mxPoint x="198" y="413" as="sourcePoint" />
            <mxPoint x="192" y="415" as="targetPoint" />
          </mxGeometry>
        </mxCell>
        <mxCell id="wjfshBFA1GzZAg17_Ccb-14" value="" style="endArrow=classic;html=1;rounded=0;fontSize=12;startSize=8;endSize=8;curved=1;entryX=0.5;entryY=1;entryDx=0;entryDy=0;" edge="1" parent="1" target="wjfshBFA1GzZAg17_Ccb-3">
          <mxGeometry width="50" height="50" relative="1" as="geometry">
            <mxPoint x="193" y="415" as="sourcePoint" />
            <mxPoint x="224" y="319" as="targetPoint" />
          </mxGeometry>
        </mxCell>
        <mxCell id="wjfshBFA1GzZAg17_Ccb-16" value="No" style="text;html=1;align=center;verticalAlign=middle;resizable=0;points=[];autosize=1;strokeColor=none;fillColor=none;fontSize=16;" vertex="1" parent="1">
          <mxGeometry x="315.5" y="337.5" width="38" height="31" as="geometry" />
        </mxCell>
        <mxCell id="wjfshBFA1GzZAg17_Ccb-18" value="Yes" style="text;html=1;align=center;verticalAlign=middle;resizable=0;points=[];autosize=1;strokeColor=none;fillColor=none;fontSize=16;" vertex="1" parent="1">
          <mxGeometry x="493.5" y="327.5" width="44" height="31" as="geometry" />
        </mxCell>
        <mxCell id="wjfshBFA1GzZAg17_Ccb-27" style="edgeStyle=none;curved=1;rounded=0;orthogonalLoop=1;jettySize=auto;html=1;exitX=0;exitY=1;exitDx=0;exitDy=0;fontSize=12;startSize=8;endSize=8;" edge="1" parent="1" source="wjfshBFA1GzZAg17_Ccb-21" target="wjfshBFA1GzZAg17_Ccb-23">
          <mxGeometry relative="1" as="geometry" />
        </mxCell>
        <mxCell id="wjfshBFA1GzZAg17_Ccb-29" style="edgeStyle=none;curved=1;rounded=0;orthogonalLoop=1;jettySize=auto;html=1;exitX=1;exitY=1;exitDx=0;exitDy=0;entryX=0.5;entryY=0;entryDx=0;entryDy=0;fontSize=12;startSize=8;endSize=8;" edge="1" parent="1" source="wjfshBFA1GzZAg17_Ccb-21" target="wjfshBFA1GzZAg17_Ccb-22">
          <mxGeometry relative="1" as="geometry" />
        </mxCell>
        <mxCell id="wjfshBFA1GzZAg17_Ccb-21" value="Bowl Weight Increased?" style="rhombus;whiteSpace=wrap;html=1;" vertex="1" parent="1">
          <mxGeometry x="297" y="463" width="214" height="80" as="geometry" />
        </mxCell>
        <mxCell id="wjfshBFA1GzZAg17_Ccb-35" style="edgeStyle=none;curved=1;rounded=0;orthogonalLoop=1;jettySize=auto;html=1;exitX=0;exitY=0.5;exitDx=0;exitDy=0;entryX=0.5;entryY=0;entryDx=0;entryDy=0;fontSize=12;startSize=8;endSize=8;" edge="1" parent="1" source="wjfshBFA1GzZAg17_Ccb-22" target="wjfshBFA1GzZAg17_Ccb-33">
          <mxGeometry relative="1" as="geometry" />
        </mxCell>
        <mxCell id="wjfshBFA1GzZAg17_Ccb-22" value="Wait 10 Minutes" style="rounded=0;whiteSpace=wrap;html=1;" vertex="1" parent="1">
          <mxGeometry x="455.5" y="597" width="120" height="48" as="geometry" />
        </mxCell>
        <mxCell id="wjfshBFA1GzZAg17_Ccb-23" value="Send Alert:&lt;div&gt;Dispense Failure&lt;/div&gt;" style="rounded=0;whiteSpace=wrap;html=1;" vertex="1" parent="1">
          <mxGeometry x="230" y="597" width="120" height="48" as="geometry" />
        </mxCell>
        <mxCell id="wjfshBFA1GzZAg17_Ccb-25" value="" style="endArrow=none;html=1;rounded=0;fontSize=12;startSize=8;endSize=8;curved=1;exitX=0;exitY=0.5;exitDx=0;exitDy=0;" edge="1" parent="1" source="wjfshBFA1GzZAg17_Ccb-23">
          <mxGeometry width="50" height="50" relative="1" as="geometry">
            <mxPoint x="210" y="621" as="sourcePoint" />
            <mxPoint x="170" y="621" as="targetPoint" />
          </mxGeometry>
        </mxCell>
        <mxCell id="wjfshBFA1GzZAg17_Ccb-26" value="" style="endArrow=classic;html=1;rounded=0;fontSize=12;startSize=8;endSize=8;curved=1;entryX=0.5;entryY=1;entryDx=0;entryDy=0;" edge="1" parent="1" target="wjfshBFA1GzZAg17_Ccb-3">
          <mxGeometry width="50" height="50" relative="1" as="geometry">
            <mxPoint x="174" y="620" as="sourcePoint" />
            <mxPoint x="185" y="521" as="targetPoint" />
          </mxGeometry>
        </mxCell>
        <mxCell id="wjfshBFA1GzZAg17_Ccb-28" value="No" style="text;html=1;align=center;verticalAlign=middle;resizable=0;points=[];autosize=1;strokeColor=none;fillColor=none;fontSize=16;" vertex="1" parent="1">
          <mxGeometry x="277.5" y="538.5" width="38" height="31" as="geometry" />
        </mxCell>
        <mxCell id="wjfshBFA1GzZAg17_Ccb-30" value="Yes" style="text;html=1;align=center;verticalAlign=middle;resizable=0;points=[];autosize=1;strokeColor=none;fillColor=none;fontSize=16;" vertex="1" parent="1">
          <mxGeometry x="493" y="535" width="44" height="31" as="geometry" />
        </mxCell>
        <mxCell id="wjfshBFA1GzZAg17_Ccb-37" style="edgeStyle=none;curved=1;rounded=0;orthogonalLoop=1;jettySize=auto;html=1;exitX=0;exitY=1;exitDx=0;exitDy=0;entryX=0.5;entryY=0;entryDx=0;entryDy=0;fontSize=12;startSize=8;endSize=8;" edge="1" parent="1" source="wjfshBFA1GzZAg17_Ccb-33" target="wjfshBFA1GzZAg17_Ccb-36">
          <mxGeometry relative="1" as="geometry" />
        </mxCell>
        <mxCell id="wjfshBFA1GzZAg17_Ccb-43" style="edgeStyle=none;curved=1;rounded=0;orthogonalLoop=1;jettySize=auto;html=1;exitX=1;exitY=1;exitDx=0;exitDy=0;fontSize=12;startSize=8;endSize=8;" edge="1" parent="1" source="wjfshBFA1GzZAg17_Ccb-33" target="wjfshBFA1GzZAg17_Ccb-42">
          <mxGeometry relative="1" as="geometry" />
        </mxCell>
        <mxCell id="wjfshBFA1GzZAg17_Ccb-33" value="Pet Ate? (Weight&amp;nbsp; &amp;nbsp; &amp;nbsp; &amp;nbsp; &amp;nbsp;)" style="rhombus;whiteSpace=wrap;html=1;" vertex="1" parent="1">
          <mxGeometry x="297" y="682" width="214" height="80" as="geometry" />
        </mxCell>
        <mxCell id="wjfshBFA1GzZAg17_Ccb-34" value="" style="endArrow=classic;html=1;rounded=0;fontSize=12;startSize=8;endSize=8;curved=1;" edge="1" parent="1">
          <mxGeometry width="50" height="50" relative="1" as="geometry">
            <mxPoint x="439" y="714" as="sourcePoint" />
            <mxPoint x="439" y="731" as="targetPoint" />
          </mxGeometry>
        </mxCell>
        <mxCell id="wjfshBFA1GzZAg17_Ccb-36" value="Send Alert:&lt;div&gt;Pet Did Not Eat&lt;/div&gt;" style="rounded=0;whiteSpace=wrap;html=1;" vertex="1" parent="1">
          <mxGeometry x="230" y="796" width="120" height="48" as="geometry" />
        </mxCell>
        <mxCell id="wjfshBFA1GzZAg17_Ccb-38" value="No" style="text;html=1;align=center;verticalAlign=middle;resizable=0;points=[];autosize=1;strokeColor=none;fillColor=none;fontSize=16;" vertex="1" parent="1">
          <mxGeometry x="295.5" y="739.5" width="38" height="31" as="geometry" />
        </mxCell>
        <mxCell id="wjfshBFA1GzZAg17_Ccb-39" value="" style="endArrow=none;html=1;rounded=0;fontSize=12;startSize=8;endSize=8;curved=1;exitX=0;exitY=0.5;exitDx=0;exitDy=0;" edge="1" parent="1">
          <mxGeometry width="50" height="50" relative="1" as="geometry">
            <mxPoint x="230" y="825" as="sourcePoint" />
            <mxPoint x="134" y="825" as="targetPoint" />
          </mxGeometry>
        </mxCell>
        <mxCell id="wjfshBFA1GzZAg17_Ccb-40" value="" style="endArrow=classic;html=1;rounded=0;fontSize=12;startSize=8;endSize=8;curved=1;" edge="1" parent="1">
          <mxGeometry width="50" height="50" relative="1" as="geometry">
            <mxPoint x="137" y="824" as="sourcePoint" />
            <mxPoint x="198" y="265" as="targetPoint" />
          </mxGeometry>
        </mxCell>
        <mxCell id="wjfshBFA1GzZAg17_Ccb-41" value="Start&lt;div&gt;(System ON)&lt;/div&gt;" style="strokeWidth=2;html=1;shape=mxgraph.flowchart.start_1;whiteSpace=wrap;" vertex="1" parent="1">
          <mxGeometry x="152" y="32" width="100" height="50" as="geometry" />
        </mxCell>
        <mxCell id="wjfshBFA1GzZAg17_Ccb-44" style="edgeStyle=none;curved=1;rounded=0;orthogonalLoop=1;jettySize=auto;html=1;exitX=1;exitY=0.5;exitDx=0;exitDy=0;exitPerimeter=0;fontSize=12;startSize=8;endSize=8;" edge="1" parent="1" source="wjfshBFA1GzZAg17_Ccb-42" target="wjfshBFA1GzZAg17_Ccb-3">
          <mxGeometry relative="1" as="geometry">
            <mxPoint x="370" y="196" as="targetPoint" />
            <Array as="points">
              <mxPoint x="763" y="660" />
              <mxPoint x="736" y="327" />
              <mxPoint x="555" y="187" />
            </Array>
          </mxGeometry>
        </mxCell>
        <mxCell id="wjfshBFA1GzZAg17_Ccb-42" value="END / Repeat" style="strokeWidth=2;html=1;shape=mxgraph.flowchart.start_1;whiteSpace=wrap;" vertex="1" parent="1">
          <mxGeometry x="455" y="794" width="100" height="50" as="geometry" />
        </mxCell>
        <mxCell id="wjfshBFA1GzZAg17_Ccb-45" value="&lt;font style=&quot;font-size: 44px;&quot;&gt;Flowchart&lt;/font&gt;" style="text;html=1;align=center;verticalAlign=middle;resizable=0;points=[];autosize=1;strokeColor=none;fillColor=none;fontSize=16;" vertex="1" parent="1">
          <mxGeometry x="114" y="-64" width="209" height="65" as="geometry" />
        </mxCell>
      </root>
    </mxGraphModel>
  </diagram>
</mxfile>
